<svg xmlns="http://www.w3.org/2000/svg" xmlns:svg="http://www.w3.org/2000/svg" xmlns:xlink="http://www.w3.org/1999/xlink" id="svg3810" width="16" height="16" version="1.1"><defs id="defs3812"><linearGradient id="linearGradient3988" x1="24" x2="24" y1="5.564" y2="43" gradientTransform="matrix(0.24324324,0,0,0.35135133,2.1621636,-0.43242804)" gradientUnits="userSpaceOnUse" xlink:href="#linearGradient3977"/><linearGradient id="linearGradient3977"><stop style="stop-color:#fff;stop-opacity:1" id="stop3979" offset="0"/><stop id="stop3981" offset=".036" style="stop-color:#fff;stop-opacity:.23529412"/><stop style="stop-color:#fff;stop-opacity:.15686275" id="stop3983" offset=".951"/><stop style="stop-color:#fff;stop-opacity:.39215687" id="stop3985" offset="1"/></linearGradient><linearGradient id="linearGradient3600"><stop id="stop3602" offset="0" style="stop-color:#f4f4f4;stop-opacity:1"/><stop id="stop3604" offset="1" style="stop-color:#dbdbdb;stop-opacity:1"/></linearGradient><linearGradient id="linearGradient3104"><stop id="stop3106" offset="0" style="stop-color:#a0a0a0;stop-opacity:1"/><stop id="stop3108" offset="1" style="stop-color:#bebebe;stop-opacity:1"/></linearGradient><linearGradient id="linearGradient3806" x1="25.132" x2="25.132" y1=".985" y2="47.013" gradientTransform="matrix(0.31428714,0,0,0.3259265,0.457108,-0.32223804)" gradientUnits="userSpaceOnUse" xlink:href="#linearGradient3600"/><linearGradient id="linearGradient3808" x1="-51.786" x2="-51.786" y1="50.786" y2="2.906" gradientTransform="matrix(0.25378586,0,0,0.30501865,19.128979,-0.68547704)" gradientUnits="userSpaceOnUse" xlink:href="#linearGradient3104"/></defs><metadata id="metadata3815"/><g id="layer1"><path style="fill:url(#linearGradient3806);fill-opacity:1;stroke:url(#linearGradient3808);stroke-width:.99992192;stroke-linecap:butt;stroke-linejoin:round;stroke-miterlimit:4;stroke-opacity:1;stroke-dasharray:none;stroke-dashoffset:0;display:inline" id="path4160" d="m 2.4999621,0.49997396 c 2.5206756,0 11.0000629,9.54e-4 11.0000629,9.54e-4 l 1.3e-5,14.99909804 c 0,0 -7.3333841,0 -11.0000759,0 0,-5.000017 0,-10.000035 0,-15.00005204 z"/><path style="fill:none;stroke:url(#linearGradient3988);stroke-width:1;stroke-linecap:round;stroke-linejoin:miter;stroke-miterlimit:4;stroke-opacity:1;stroke-dasharray:none;stroke-dashoffset:0" id="rect6741-1" d="m 12.5,14.5 -9.0000001,0 0,-13 L 12.5,1.5 z"/><path id="rect3137-6-5-5-1" d="m -5.7807152,21.175912 4,0 0,4 -4,0 z m -7.9999998,0 3.9999998,0 0,4 -3.9999998,0 z m -8,0 4,0 0,4 -4,0 z m 11.9999998,-4 4,0 0,4 -4,0 z m -7.9999998,0 4,0 0,4 -4,0 z m -8,0 4,0 0,4 -4,0 z m 19.9999998,-3.999999 4,0 0,3.999999 -4,0 z m -7.9999998,0 3.9999998,0 0,3.999999 -3.9999998,0 z m -8,0 4,0 0,3.999999 -4,0 z m 11.9999998,-4.0000005 4,0 0,4.0000005 -4,0 z m -7.9999998,0 4,0 0,4.0000005 -4,0 z m -8,0 4,0 0,4.0000005 -4,0 z m 19.9999998,-4 4,0 0,4 -4,0 z m -7.9999998,0 3.9999998,0 0,4 -3.9999998,0 z m -8,0 4,0 0,4 -4,0 z m 11.9999998,-4.0000001 4,0 0,4.0000001 -4,0 z m -7.9999998,0 4,0 0,4.0000001 -4,0 z m -8,0 4,0 0,4.0000001 -4,0 z m 19.9999998,-4 4,0 0,4 -4,0 z m -7.9999998,0 3.9999998,0 0,4 -3.9999998,0 z m -8,0 4,0 0,4 -4,0 z m 11.9999998,-4.0000003 4,0 0,4.0000003 -4,0 z m -7.9999998,0 4,0 0,4.0000003 -4,0 z m -8,0 4,0 0,4.0000003 -4,0 z" style="opacity:.3;color:#000;fill:#fff;fill-opacity:1;fill-rule:nonzero;stroke:none;stroke-width:.98542744;marker:none;visibility:visible;display:inline;overflow:visible;enable-background:accumulate"/><path id="rect3137-6-5-5" d="m -5.7807152,20.175912 4,0 0,4 -4,0 z m -7.9999998,0 3.9999998,0 0,4 -3.9999998,0 z m -8,0 4,0 0,4 -4,0 z m 11.9999998,-3.999999 4,0 0,3.999999 -4,0 z m -7.9999998,0 4,0 0,3.999999 -4,0 z m -8,0 4,0 0,3.999999 -4,0 z m 19.9999998,-4 4,0 0,4 -4,0 z m -7.9999998,0 3.9999998,0 0,4 -3.9999998,0 z m -8,0 4,0 0,4 -4,0 z m 11.9999998,-4.0000005 4,0 0,4.0000005 -4,0 z m -7.9999998,0 4,0 0,4.0000005 -4,0 z m -8,0 4,0 0,4.0000005 -4,0 z m 19.9999998,-4 4,0 0,4 -4,0 z m -7.9999998,0 3.9999998,0 0,4 -3.9999998,0 z m -8,0 4,0 0,4 -4,0 z m 11.9999998,-4.00000006 4,0 0,4.00000006 -4,0 z m -7.9999998,0 4,0 0,4.00000006 -4,0 z m -8,0 4,0 0,4.00000006 -4,0 z m 19.9999998,-4.00000034 4,0 0,4.00000034 -4,0 z m -7.9999998,0 3.9999998,0 0,4.00000034 -3.9999998,0 z m -8,0 4,0 0,4.00000034 -4,0 z m 11.9999998,-4 4,0 0,4 -4,0 z m -7.9999998,0 4,0 0,4 -4,0 z m -8,0 4,0 0,4 -4,0 z" style="opacity:.2;color:#000;fill:#000;fill-opacity:1;fill-rule:nonzero;stroke:none;stroke-width:.98542744;marker:none;visibility:visible;display:inline;overflow:visible;enable-background:accumulate"/><rect style="opacity:.2;fill:#000;fill-opacity:1;stroke:none" id="rect3007" width="2" height="2" x="4" y="2"/><rect id="rect3783" width="2" height="2" x="6" y="4" style="opacity:.2;fill:#000;fill-opacity:1;stroke:none"/><rect style="opacity:.2;fill:#000;fill-opacity:1;stroke:none" id="rect3785" width="2" height="2" x="8" y="2"/><rect id="rect3789" width="2" height="2" x="4" y="6" style="opacity:.2;fill:#000;fill-opacity:1;stroke:none"/><rect style="opacity:.2;fill:#000;fill-opacity:1;stroke:none" id="rect3791" width="2" height="2" x="6" y="8"/><rect id="rect3793" width="2" height="2" x="10" y="8" style="opacity:.2;fill:#000;fill-opacity:1;stroke:none"/><rect style="opacity:.2;fill:#000;fill-opacity:1;stroke:none" id="rect3795" width="2" height="2" x="8" y="10"/><rect id="rect3797" width="2" height="2" x="10" y="4" style="opacity:.2;fill:#000;fill-opacity:1;stroke:none"/><rect style="opacity:.2;fill:#000;fill-opacity:1;stroke:none" id="rect3799" width="2" height="2" x="8" y="6"/><rect id="rect3801" width="2" height="2" x="4" y="10" style="opacity:.2;fill:#000;fill-opacity:1;stroke:none"/><rect style="opacity:.2;fill:#000;fill-opacity:1;stroke:none" id="rect3803" width="2" height="2" x="6" y="12"/><rect id="rect3805" width="2" height="2" x="10" y="12" style="opacity:.2;fill:#000;fill-opacity:1;stroke:none"/></g></svg>