<svg xmlns="http://www.w3.org/2000/svg" xmlns:svg="http://www.w3.org/2000/svg" xmlns:xlink="http://www.w3.org/1999/xlink" id="svg3810" width="16" height="16" version="1.1"><defs id="defs3812"><linearGradient id="linearGradient3988" x1="24" x2="24" y1="3.569" y2="43" gradientTransform="matrix(0.24324324,0,0,0.35135133,2.1621636,-0.43242804)" gradientUnits="userSpaceOnUse" xlink:href="#linearGradient3977"/><linearGradient id="linearGradient3977"><stop style="stop-color:#fff;stop-opacity:1" id="stop3979" offset="0"/><stop id="stop3981" offset=".082" style="stop-color:#fff;stop-opacity:.23529412"/><stop style="stop-color:#fff;stop-opacity:.15686275" id="stop3983" offset=".951"/><stop style="stop-color:#fff;stop-opacity:.39215687" id="stop3985" offset="1"/></linearGradient><linearGradient id="linearGradient3600"><stop id="stop3602" offset="0" style="stop-color:#f4f4f4;stop-opacity:1"/><stop id="stop3604" offset="1" style="stop-color:#dbdbdb;stop-opacity:1"/></linearGradient><linearGradient id="linearGradient3104"><stop id="stop3106" offset="0" style="stop-color:#a0a0a0;stop-opacity:1"/><stop id="stop3108" offset="1" style="stop-color:#bebebe;stop-opacity:1"/></linearGradient><linearGradient id="linearGradient8265-821-176-38-919-66-249-48-321"><stop style="stop-color:#fff;stop-opacity:1" id="stop5601" offset="0"/><stop style="stop-color:#fff;stop-opacity:0" id="stop5603" offset="1"/></linearGradient><linearGradient id="linearGradient3924-4"><stop id="stop3926-7" offset="0" style="stop-color:#fff;stop-opacity:1"/><stop id="stop3928-6" offset="1" style="stop-color:#fff;stop-opacity:0"/></linearGradient><linearGradient id="linearGradient3824"><stop id="stop3826" offset="0" style="stop-color:#fff;stop-opacity:1"/><stop id="stop3828" offset="1" style="stop-color:#fff;stop-opacity:0"/></linearGradient><linearGradient id="linearGradient5048"><stop style="stop-color:#000;stop-opacity:0" id="stop5050" offset="0"/><stop style="stop-color:#000;stop-opacity:1" id="stop5056" offset=".5"/><stop style="stop-color:#000;stop-opacity:0" id="stop5052" offset="1"/></linearGradient><linearGradient id="linearGradient5060"><stop style="stop-color:#000;stop-opacity:1" id="stop5062" offset="0"/><stop style="stop-color:#000;stop-opacity:0" id="stop5064" offset="1"/></linearGradient><linearGradient id="linearGradient3671-580"><stop style="stop-color:#fc93dc;stop-opacity:1" id="stop4088" offset="0"/><stop style="stop-color:#da72d3;stop-opacity:1" id="stop4090" offset=".262"/><stop style="stop-color:#a33fab;stop-opacity:1" id="stop4092" offset=".705"/><stop style="stop-color:#502b58;stop-opacity:1" id="stop4094" offset="1"/></linearGradient><linearGradient id="linearGradient3977-4"><stop id="stop3979-7" offset="0" style="stop-color:#fff;stop-opacity:1"/><stop style="stop-color:#fff;stop-opacity:.23529412" id="stop3981-5" offset=".036"/><stop id="stop3983-4" offset=".951" style="stop-color:#fff;stop-opacity:.15686275"/><stop id="stop3985-1" offset="1" style="stop-color:#fff;stop-opacity:.39215687"/></linearGradient><linearGradient id="linearGradient3707-662"><stop style="stop-color:#542f57;stop-opacity:1" id="stop4098" offset="0"/><stop style="stop-color:#bb5ca4;stop-opacity:1" id="stop4100" offset="1"/></linearGradient><linearGradient id="linearGradient3947" x1="7.947" x2="7.947" y1="15.568" y2=".598" gradientUnits="userSpaceOnUse" xlink:href="#linearGradient3707-662"/><radialGradient id="radialGradient3949" cx="-.556" cy="-2.53" r="6" fx="-.556" fy="-2.53" gradientTransform="matrix(-0.36478271,5.8467714,-4.3662772,-0.27241398,-9.3774434,-3.1358245)" gradientUnits="userSpaceOnUse" xlink:href="#linearGradient3671-580"/><linearGradient id="linearGradient4010" x1="16.626" x2="20.055" y1="15.298" y2="24.628" gradientTransform="matrix(0.740136,0,0,1.3934396,-54.809249,-19.444705)" gradientUnits="userSpaceOnUse" xlink:href="#linearGradient8265-821-176-38-919-66-249-48-321"/><linearGradient id="linearGradient4015" x1="17" x2="17" y1="25" y2="6" gradientTransform="translate(-61.053983,-14.59505)" gradientUnits="userSpaceOnUse" spreadMethod="reflect" xlink:href="#linearGradient3924-4"/><radialGradient id="radialGradient4018" cx="24" cy="9.489" r="18.5" fx="24" fy="9.489" gradientTransform="matrix(0,0.37467946,-1.0124089,0,20.591287,-2.7196434)" gradientUnits="userSpaceOnUse" xlink:href="#linearGradient3824"/><linearGradient id="linearGradient4022" x1="24" x2="24" y1="5.564" y2="43" gradientTransform="matrix(0.89189189,0,0,1.1351351,-58.459385,-16.870843)" gradientUnits="userSpaceOnUse" xlink:href="#linearGradient3977-4"/><radialGradient id="radialGradient4025" cx="7.806" cy="9.957" r="12.672" fx="7.276" fy="9.957" gradientTransform="matrix(-1.6167311e-7,6.6018651,-8.0922115,-1.9817022e-7,43.510305,-72.200558)" gradientUnits="userSpaceOnUse" xlink:href="#linearGradient3671-580"/><linearGradient id="linearGradient4027" x1="25" x2="25" y1="47.935" y2=".918" gradientTransform="translate(-61.053985,-12.128073)" gradientUnits="userSpaceOnUse" xlink:href="#linearGradient3707-662"/><radialGradient id="radialGradient4030" cx="605.714" cy="486.648" r="117.143" fx="605.714" fy="486.648" gradientTransform="matrix(0.00628362,0,0,0.00391667,2.991048,6.1143996)" gradientUnits="userSpaceOnUse" xlink:href="#linearGradient5060"/><radialGradient id="radialGradient4033" cx="605.714" cy="486.648" r="117.143" fx="605.714" fy="486.648" gradientTransform="matrix(-0.02303994,0,0,0.01470022,-39.430875,24.912564)" gradientUnits="userSpaceOnUse" xlink:href="#linearGradient5060"/><linearGradient id="linearGradient4036" x1="302.857" x2="302.857" y1="366.648" y2="609.505" gradientTransform="matrix(0.06732488,0,0,0.01470022,-61.395124,24.912534)" gradientUnits="userSpaceOnUse" xlink:href="#linearGradient5048"/></defs><metadata id="metadata3815"/><g id="layer1"><path style="fill:url(#radialGradient3949);fill-opacity:1;stroke:url(#linearGradient3947);stroke-width:.99992192000000002;stroke-linecap:butt;stroke-linejoin:round;stroke-miterlimit:4;stroke-opacity:1;stroke-dasharray:none;stroke-dashoffset:0;display:inline" id="path4160" d="m 2.4999621,0.49997396 c 2.5206756,0 11.0000629,9.54e-4 11.0000629,9.54e-4 l 1.3e-5,14.99909804 c 0,0 -7.3333841,0 -11.0000759,0 0,-5.000017 0,-10.000035 0,-15.00005204 z"/><path style="fill:none;stroke:url(#linearGradient3988);stroke-width:1;stroke-linecap:round;stroke-linejoin:miter;stroke-miterlimit:4;stroke-opacity:1;stroke-dasharray:none;stroke-dashoffset:0" id="rect6741-1" d="m 12.5,14.5 -9.0000001,0 0,-13 L 12.5,1.5 z"/><path style="opacity:.3;fill:url(#radialGradient4030);fill-opacity:1;fill-rule:nonzero;stroke:none;stroke-width:1;marker:none;visibility:visible;display:inline;overflow:visible" id="path2883" d="m 6.777939,7.5504696 c 0,0 0,0.951138 0,0.951138 0.323591,0.0018 0.782285,-0.213101 0.782285,-0.47563 0,-0.262528 -0.361103,-0.475507 -0.782285,-0.475508 z"/><path style="opacity:.9;fill:none;stroke:#fff;stroke-width:1px;stroke-linecap:butt;stroke-linejoin:miter;stroke-opacity:1" id="path3701" d="m 3.5,8.4617336 c 0.969132,-2.698991 1.90827,1.204584 2.556819,0.531058 0.558829,-0.580351 0.63291,-2.250458 1.227273,-2.867711 0.5326261,-0.553139 0.9033992,1.787884 1.0227271,1.911807 0.7318689,0.760056 0.803651,-1.236522 1.1249991,-0.902798 0.5304106,0.550839 -0.06227,2.00645 0.5113637,2.602182 C 10.403435,10.21425 10.875164,5.5159206 12.5,8.4086286"/><path style="opacity:.6;fill:url(#radialGradient4018);fill-opacity:1;stroke:none" id="path3782" d="M 7.445101,6.2726636 C 7.119618,6.4742706 7.010557,6.9267926 6.875136,7.2918976 6.637001,7.9727156 6.549683,8.7644226 6.078746,9.3130906 5.777238,9.6145126 5.430565,9.2365806 5.251125,8.9675876 4.935582,8.5750396 4.70516,8.0434856 4.259542,7.8101526 c -0.419969,-0.08466 -0.594922,0.481858 -0.741736,0.82057 -0.01866,0.104494 -0.0752,0.116731 -0.14054,0.10365 l 0,4.0855744 c 0,0.209047 0.154577,0.380053 0.343541,0.380053 l 8.557288,0 c 0.188965,0 0.343541,-0.171006 0.343541,-0.380053 l 0,-3.9646474 c -0.24067,-0.402596 -0.616657,-1.015842 -0.952545,-1.10561 -0.464814,-0.0025 -0.657705,0.576604 -0.843236,0.958771 -0.207619,0.444196 -0.311846,0.958617 -0.593389,1.3560994 -0.4140929,0.283519 -0.6182629,-0.4968304 -0.6246188,-0.8464824 -0.05734,-0.5751 0.1071139,-1.200646 -0.14054,-1.736153 -0.200025,-0.186969 -0.2330901,0.479279 -0.374772,0.639181 -0.1297131,0.501127 -0.807221,0.528808 -0.936929,0.02591 C 7.970426,7.5429536 7.888784,6.8741706 7.538794,6.3504006 l -0.05465,-0.05183 -0.03904,-0.02591 z"/></g></svg>