<svg xmlns="http://www.w3.org/2000/svg" xmlns:svg="http://www.w3.org/2000/svg" xmlns:xlink="http://www.w3.org/1999/xlink" id="svg3323" width="16" height="16" version="1.1"><defs id="defs3325"><linearGradient id="linearGradient3252" x1="71.204" x2="71.204" y1="6.238" y2="44.341" gradientTransform="matrix(0.13513513,0,0,0.13513514,-1.6937177,4.5733459)" gradientUnits="userSpaceOnUse" xlink:href="#linearGradient4011"/><linearGradient id="linearGradient4011"><stop id="stop4013" offset="0" style="stop-color:#fff;stop-opacity:1"/><stop id="stop4015" offset=".508" style="stop-color:#fff;stop-opacity:.23529412"/><stop id="stop4017" offset=".835" style="stop-color:#fff;stop-opacity:.15686275"/><stop id="stop4019" offset="1" style="stop-color:#fff;stop-opacity:.39215687"/></linearGradient><linearGradient id="linearGradient3270" x1="12.274" x2="35.391" y1="32.416" y2="14.203" gradientTransform="matrix(0,0.20000175,-0.20000175,0,12.62004,3.1999575)" gradientUnits="userSpaceOnUse" xlink:href="#linearGradient3263"/><linearGradient id="linearGradient3263" x1="12.274" x2="35.391" y1="32.416" y2="14.203" gradientUnits="userSpaceOnUse"><stop id="stop3265" offset="0" style="stop-color:#dedbde;stop-opacity:1"/><stop id="stop3267" offset=".5" style="stop-color:#e6e6e6;stop-opacity:1"/><stop id="stop3269" offset="1" style="stop-color:#d2d2d2;stop-opacity:1"/></linearGradient><linearGradient id="linearGradient3272" x1="-21.916" x2="-21.916" y1="3" y2="45.033" gradientTransform="matrix(0.17073167,0,0,0.17073167,12.484278,3.9024399)" gradientUnits="userSpaceOnUse" xlink:href="#linearGradient3772"/><linearGradient id="linearGradient3772"><stop id="stop3774" offset="0" style="stop-color:#b4b4b4;stop-opacity:1"/><stop id="stop3776" offset="1" style="stop-color:#969696;stop-opacity:1"/></linearGradient><linearGradient id="linearGradient3988" x1="24" x2="24" y1="5.564" y2="43" gradientTransform="matrix(0.24324324,0,0,0.35135133,2.1621636,-0.43242804)" gradientUnits="userSpaceOnUse" xlink:href="#linearGradient3977"/><linearGradient id="linearGradient3977"><stop id="stop3979" offset="0" style="stop-color:#fff;stop-opacity:1"/><stop id="stop3981" offset=".036" style="stop-color:#fff;stop-opacity:.23529412"/><stop id="stop3983" offset=".951" style="stop-color:#fff;stop-opacity:.15686275"/><stop id="stop3985" offset="1" style="stop-color:#fff;stop-opacity:.39215687"/></linearGradient><linearGradient id="linearGradient3600"><stop id="stop3602" offset="0" style="stop-color:#f4f4f4;stop-opacity:1"/><stop id="stop3604" offset="1" style="stop-color:#dbdbdb;stop-opacity:1"/></linearGradient><linearGradient id="linearGradient3104"><stop id="stop3106" offset="0" style="stop-color:#a0a0a0;stop-opacity:1"/><stop id="stop3108" offset="1" style="stop-color:#bebebe;stop-opacity:1"/></linearGradient><linearGradient id="linearGradient3319" x1="25.132" x2="25.132" y1=".985" y2="47.013" gradientTransform="matrix(0.31428714,0,0,0.3259265,0.457108,-0.32223804)" gradientUnits="userSpaceOnUse" xlink:href="#linearGradient3600"/><linearGradient id="linearGradient3321" x1="-51.786" x2="-51.786" y1="50.786" y2="2.906" gradientTransform="matrix(0.25378586,0,0,0.30501865,19.128979,-0.68547704)" gradientUnits="userSpaceOnUse" xlink:href="#linearGradient3104"/></defs><metadata id="metadata3328"/><g id="layer1"><path id="path4160" d="m 2.4999621,0.49997396 c 2.5206756,0 11.0000629,9.54e-4 11.0000629,9.54e-4 l 1.3e-5,14.99909804 c 0,0 -7.3333841,0 -11.0000759,0 0,-5.000017 0,-10.000035 0,-15.00005204 z" style="fill:url(#linearGradient3319);fill-opacity:1;stroke:url(#linearGradient3321);stroke-width:.99992192;stroke-linecap:butt;stroke-linejoin:round;stroke-miterlimit:4;stroke-opacity:1;stroke-dasharray:none;stroke-dashoffset:0;display:inline"/><path id="rect6741-1" d="m 12.5,14.5 -9.0000001,0 0,-13 L 12.5,1.5 z" style="fill:none;stroke:url(#linearGradient3988);stroke-width:1;stroke-linecap:round;stroke-linejoin:miter;stroke-miterlimit:4;stroke-opacity:1;stroke-dasharray:none;stroke-dashoffset:0"/><path id="path2781" d="m 11.5,8.0000001 c 0,-1.9400173 -1.5599826,-3.4999994 -3.5000009,-3.4999994 -1.9400173,0 -3.4999992,1.5599822 -3.4999992,3.4999994 0,1.9400172 1.5599819,3.4999989 3.4999992,3.4999989 C 9.9400166,11.499998 11.5,9.9400173 11.5,8.0000001 z m -2.3333335,0 c 0,0.6038405 -0.4638238,1.1666662 -1.1666674,1.1666662 -0.7028428,0 -1.1666659,-0.6097035 -1.1666659,-1.1666662 0,-0.5726081 0.4829954,-1.1666665 1.1666659,-1.1666665 0.699307,0 1.1666674,0.5626231 1.1666674,1.1666665 z" style="fill:url(#linearGradient3270);fill-rule:nonzero;stroke:url(#linearGradient3272);stroke-width:1;stroke-miterlimit:4;stroke-opacity:1"/><path id="path8655" d="M 10.5,7.999912 C 10.5,9.3806676 9.3806298,10.5 8.0000314,10.5 6.6193078,10.5 5.4999999,9.3806549 5.4999999,7.999912 c 0,-1.3806928 1.1193079,-2.4999118 2.5000315,-2.4999118 1.3805984,0 2.4999686,1.119219 2.4999686,2.4999118 l 0,0 z" style="opacity:.55;color:#000;fill:none;stroke:url(#linearGradient3252);stroke-width:.99999994;stroke-linecap:round;stroke-linejoin:round;stroke-miterlimit:4;stroke-opacity:1;stroke-dasharray:none;stroke-dashoffset:0;marker:none;visibility:visible;display:inline;overflow:visible;enable-background:accumulate"/></g></svg>