<svg xmlns="http://www.w3.org/2000/svg" xmlns:svg="http://www.w3.org/2000/svg" xmlns:xlink="http://www.w3.org/1999/xlink" id="svg3989" width="16" height="16" version="1.1"><defs id="defs3991"><linearGradient id="linearGradient3128" x1="24" x2="24" y1="5" y2="43" gradientTransform="matrix(0.2972973,0,0,0.2972973,0.86486647,0.86486707)" gradientUnits="userSpaceOnUse" xlink:href="#linearGradient3924-4-8"/><linearGradient id="linearGradient3924-4-8"><stop id="stop3926-0-4" offset="0" style="stop-color:#fff;stop-opacity:1"/><stop id="stop3928-6-8" offset=".063" style="stop-color:#fff;stop-opacity:.23529412"/><stop id="stop3930-2-1" offset=".951" style="stop-color:#fff;stop-opacity:.15686275"/><stop id="stop3932-9-0" offset="1" style="stop-color:#fff;stop-opacity:.39215687"/></linearGradient><linearGradient id="linearGradient3137" x1="16.626" x2="20.055" y1="15.298" y2="24.628" gradientTransform="matrix(0.2605204,0,0,0.43374453,1.7353306,-0.4776394)" gradientUnits="userSpaceOnUse" xlink:href="#linearGradient8265-821-176-38-919-66-249-7-7"/><linearGradient id="linearGradient8265-821-176-38-919-66-249-7-7"><stop id="stop2687-1-9" offset="0" style="stop-color:#fff;stop-opacity:1"/><stop id="stop2689-5-4" offset="1" style="stop-color:#fff;stop-opacity:0"/></linearGradient><linearGradient id="linearGradient2867-449-88-871-390-598-476-591-434-148-57-177-641-289-620-227-114-444-680-744-4-9-395-147-5-846-960"><stop style="stop-color:#3e3e3e;stop-opacity:1" id="stop10602" offset="0"/><stop style="stop-color:#343434;stop-opacity:1" id="stop10604" offset=".262"/><stop style="stop-color:#272727;stop-opacity:1" id="stop10606" offset=".705"/><stop style="stop-color:#1d1d1d;stop-opacity:1" id="stop10608" offset="1"/></linearGradient><radialGradient id="radialGradient3987" cx="7.496" cy="8.45" r="20" fx="7.496" fy="8.45" gradientTransform="matrix(0,0.77899676,-0.8240857,-1.4352093e-8,14.96337,-4.1449353)" gradientUnits="userSpaceOnUse" xlink:href="#linearGradient2867-449-88-871-390-598-476-591-434-148-57-177-641-289-620-227-114-444-680-744-4-9-395-147-5-846-960"/></defs><metadata id="metadata3994"/><g id="layer1"><rect style="color:#000;fill:url(#radialGradient3987);fill-opacity:1;fill-rule:nonzero;stroke:none;stroke-width:.99999994;marker:none;visibility:visible;display:inline;overflow:visible;enable-background:accumulate" id="rect5505-21-8" width="13" height="13" x="1.5" y="1.5"/><rect style="opacity:.7;color:#000;fill:none;stroke:#000;stroke-width:.99999994;stroke-linecap:butt;stroke-linejoin:miter;stroke-miterlimit:4;stroke-opacity:1;stroke-dasharray:none;stroke-dashoffset:0;marker:none;visibility:visible;display:inline;overflow:visible;enable-background:accumulate" id="rect5505-21" width="13" height="13" x="1.5" y="1.5"/><path style="opacity:.1;fill:url(#linearGradient3137);fill-opacity:1;fill-rule:evenodd;stroke:none" id="path3333" d="M 2.3842909,1.9999999 C 2.1698084,1.9999999 2,2.3041548 2,2.6000007 L 2.00398,9.9999996 C 2.3491899,9.9918999 13.737978,7.0510306 14,6.9095697 l 0,-4.309569 C 14,2.3738648 13.832259,1.9999999 13.64654,1.9999999 l -11.2622633,0 z"/><path style="opacity:.1;color:#000;fill:#fff;fill-opacity:1;fill-rule:nonzero;stroke:none;stroke-width:1;marker:none;visibility:visible;display:inline;overflow:visible;enable-background:accumulate" id="path3926-0" d="M 8.4460576,3.0009016 C 8.0205197,2.9768835 7.9550899,3.4376624 8,3.7436671 L 8,9.7577097 C 7.7389486,9.7028548 7.3983308,9.7263063 7.1040162,9.8131507 6.2197099,10.048413 5.4335562,10.847876 5.5064711,11.768817 c 0.1021941,0.862408 1.1239334,1.425071 1.9662982,1.168943 0.9542645,-0.225906 1.5075441,-1.055033 1.5075441,-2.12519 l 0,-4.7611264 c 0.7927638,0.4191605 1.5066556,1.2024363 1.4903426,2.1252211 0.0086,0.6670359 -0.178415,1.3340719 -0.442652,1.9412623 -0.035555,0.0733 0.04188,0.14513 0.09903,0.172957 0.153015,0.04274 0.232515,-0.15786 0.318996,-0.25231 C 11.366989,8.8037929 11.426564,6.989158 10.432523,5.776009 10.079747,5.3452113 9.620324,4.9783099 9.379728,4.4779382 9.1388655,4.093084 8.9862187,3.6576733 8.9120504,3.218527 8.8148902,3.0597984 8.6296399,2.9994425 8.4460576,3.0009016 z"/><path style="opacity:.55;color:#000;fill:#000;fill-opacity:1;fill-rule:nonzero;stroke:none;stroke-width:1;marker:none;visibility:visible;display:inline;overflow:visible;enable-background:accumulate" id="path3926" d="M 8.4460576,2.0009021 C 8.0205197,1.976884 7.9550899,2.4376629 8,2.7436676 L 8,8.7577102 C 7.7389486,8.7028553 7.3983308,8.7263068 7.1040162,8.8131512 6.2197099,9.0484138 5.4335562,9.8478768 5.5064711,10.768817 5.6086652,11.631225 6.6304045,12.193888 7.4727693,11.93776 8.4270338,11.711854 8.9803134,10.882727 8.9803134,9.8125708 l 0,-4.7611267 c 0.7927638,0.4191605 1.5066556,1.2024363 1.4903426,2.1252211 0.0086,0.6670359 -0.178415,1.3340719 -0.442652,1.9412626 -0.035555,0.0733 0.04188,0.14513 0.09903,0.172957 0.153015,0.04274 0.232515,-0.15786 0.318996,-0.25231 C 11.366989,7.8037934 11.426564,5.9891585 10.432523,4.7760095 10.079747,4.3452118 9.620324,3.9783104 9.379728,3.4779387 9.1388655,3.0930845 8.9862187,2.6576738 8.9120504,2.2185275 8.8148902,2.0597989 8.6296399,1.999443 8.4460576,2.0009021 z"/><rect style="opacity:.5;fill:none;stroke:url(#linearGradient3128);stroke-width:1;stroke-linecap:round;stroke-linejoin:miter;stroke-miterlimit:4;stroke-opacity:1;stroke-dasharray:none;stroke-dashoffset:0" id="rect6741-0-3" width="11" height="11" x="2.5" y="2.5"/></g></svg>