<svg xmlns="http://www.w3.org/2000/svg" xmlns:svg="http://www.w3.org/2000/svg" xmlns:xlink="http://www.w3.org/1999/xlink" id="svg3783" width="16" height="16" version="1.0"><metadata id="metadata43"/><defs id="defs3785"><linearGradient id="linearGradient3702"><stop id="stop3704" offset="0" style="stop-color:#000;stop-opacity:0"/><stop id="stop3710" offset=".5" style="stop-color:#000;stop-opacity:1"/><stop id="stop3706" offset="1" style="stop-color:#000;stop-opacity:0"/></linearGradient><linearGradient id="linearGradient3688"><stop id="stop3690" offset="0" style="stop-color:#000;stop-opacity:1"/><stop id="stop3692" offset="1" style="stop-color:#000;stop-opacity:0"/></linearGradient><linearGradient id="linearGradient2490"><stop id="stop2492" offset="0" style="stop-color:#455f0e;stop-opacity:1"/><stop id="stop2494" offset="1" style="stop-color:#84a718;stop-opacity:1"/></linearGradient><linearGradient id="linearGradient3242"><stop id="stop3244" offset="0" style="stop-color:#eef87e;stop-opacity:1"/><stop id="stop3246" offset=".262" style="stop-color:#cde34f;stop-opacity:1"/><stop id="stop3248" offset=".661" style="stop-color:#93b723;stop-opacity:1"/><stop id="stop3250" offset="1" style="stop-color:#5a7e0d;stop-opacity:1"/></linearGradient><linearGradient id="linearGradient4222"><stop id="stop4224" offset="0" style="stop-color:#fff;stop-opacity:1"/><stop id="stop4226" offset="1" style="stop-color:#fff;stop-opacity:0"/></linearGradient><radialGradient id="radialGradient2492" cx="7.44" cy="15.377" r="20" fx="7.44" fy="15.377" gradientTransform="matrix(0,0.79916167,-1.1527969,-2.6393699e-8,20.904779,-2.641053)" gradientUnits="userSpaceOnUse" xlink:href="#linearGradient3242"/><linearGradient id="linearGradient2494" x1="24" x2="24" y1="44" y2="3.899" gradientTransform="matrix(0.29352229,0,0,0.29352229,-0.82084874,2.7317815)" gradientUnits="userSpaceOnUse" xlink:href="#linearGradient2490"/></defs><path style="fill:url(#radialGradient2492);fill-opacity:1;stroke:url(#linearGradient2494);stroke-width:1.00000012;stroke-linecap:round;stroke-linejoin:round;stroke-miterlimit:4;stroke-opacity:1;stroke-dasharray:none;stroke-dashoffset:0" id="rect3558" d="m 6.5,0.50000031 c -0.980526,0 -2,0.79578939 -2,1.77631569 0,0.612829 0.527473,1.2043637 1,1.523684 l 0,0.7524572 -4.2105262,0 c -0.43736839,0 -0.78947374,0.3521053 -0.78947374,0.7894737 l 0,3.3365233 C 0.82554001,8.2699485 1.3190131,8.0000002 1.881579,8.0000002 c 0.9805263,0 1.7763158,0.7957895 1.7763158,1.7763158 0,0.980526 -0.7957895,1.776316 -1.7763158,1.776316 -0.5625659,0 -1.05603899,-0.269948 -1.38157894,-0.678454 l 0,3.836348 c 0,0.437369 0.35210535,0.789474 0.78947374,0.789474 L 5,15.5 C 4.591495,15.17446 4.223684,14.680987 4.223684,14.118421 c 0,-0.980526 0.79579,-1.776315 1.776316,-1.776315 0.980527,0 1.776316,0.795789 1.776316,1.776315 C 7.776316,14.680987 7.408506,15.17446 7,15.5 l 3.705263,0 C 11.142631,15.5 11.5,15.147895 11.5,14.710526 l 0,-4.223684 0.755757,0 c 0.31932,0.472528 0.215751,1.054122 1.744243,1.054122 0.980527,0 1.5,-0.855619 1.5,-2.0409641 0,-1.1853455 -0.519473,-1.9891565 -1.5,-1.9891565 -1.528492,0 -1.424923,0.5297868 -1.744243,1.0023144 l -0.755757,0 0,-3.1712269 C 11.5,4.9045625 11.142631,4.5524572 10.705263,4.5524572 L 7.5,4.5524572 7.5,3.8 c 0.472528,-0.3193203 1,-0.910855 1,-1.523684 0,-0.9805263 -1.019473,-1.77631569 -2,-1.77631569 z"/></svg>