<svg xmlns="http://www.w3.org/2000/svg" xmlns:svg="http://www.w3.org/2000/svg" xmlns:xlink="http://www.w3.org/1999/xlink" id="svg3147" width="16" height="16" version="1.1"><defs id="defs3149"><linearGradient id="linearGradient3977"><stop id="stop3979" offset="0" style="stop-color:#fff;stop-opacity:1"/><stop id="stop3981" offset=".036" style="stop-color:#fff;stop-opacity:.23529412"/><stop id="stop3983" offset=".951" style="stop-color:#fff;stop-opacity:.15686275"/><stop id="stop3985" offset="1" style="stop-color:#fff;stop-opacity:.39215687"/></linearGradient><linearGradient id="linearGradient3055" x1="24" x2="24" y1="5.564" y2="43" gradientTransform="matrix(0.24324324,0,0,0.35135133,2.1621636,-0.43242804)" gradientUnits="userSpaceOnUse" xlink:href="#linearGradient3977"/><radialGradient id="radialGradient3062-4" cx="7.806" cy="9.957" r="12.672" fx="7.276" fy="9.957" gradientTransform="matrix(1.857679e-8,2.4300155,-3.9775848,8.7541977e-8,50.066745,-21.552452)" gradientUnits="userSpaceOnUse" xlink:href="#linearGradient3671-580"/><linearGradient id="linearGradient3064-3" x1="25" x2="25" y1="75.289" y2=".918" gradientTransform="matrix(0.45534875,0,0,0.34098425,-0.46197711,0.32769652)" gradientUnits="userSpaceOnUse" xlink:href="#linearGradient3707-662"/><linearGradient id="linearGradient3885" x1="7.505" x2="7.505" y1="12" y2="0" gradientUnits="userSpaceOnUse" xlink:href="#linearGradient3707-662"/><linearGradient id="linearGradient3050" x1="16.626" x2="20.055" y1="15.298" y2="24.628" gradientTransform="matrix(0.740136,0,0,1.3934396,6.244736,-7.3170934)" gradientUnits="userSpaceOnUse" xlink:href="#linearGradient8265-821-176-38-919-66-249-48-321"/><linearGradient id="linearGradient8265-821-176-38-919-66-249-48-321"><stop id="stop5601" offset="0" style="stop-color:#fff;stop-opacity:1"/><stop id="stop5603" offset="1" style="stop-color:#fff;stop-opacity:0"/></linearGradient><radialGradient id="radialGradient3159" cx="24" cy="9.489" r="18.5" fx="24" fy="9.489" gradientTransform="matrix(0,1.4062645,-3.7121659,0,70.172321,-18.250347)" gradientUnits="userSpaceOnUse" xlink:href="#linearGradient3824"/><linearGradient id="linearGradient3156" x1="17" x2="17" y1="25" y2="6" gradientTransform="translate(2.35e-6,-2.467438)" gradientUnits="userSpaceOnUse" spreadMethod="reflect" xlink:href="#linearGradient3924-4"/><linearGradient id="linearGradient3924-4"><stop id="stop3926-7" offset="0" style="stop-color:#fff;stop-opacity:1"/><stop id="stop3928-6" offset="1" style="stop-color:#fff;stop-opacity:0"/></linearGradient><linearGradient id="linearGradient3824"><stop id="stop3826" offset="0" style="stop-color:#fff;stop-opacity:1"/><stop id="stop3828" offset="1" style="stop-color:#fff;stop-opacity:0"/></linearGradient><linearGradient id="linearGradient3981" x1="302.857" x2="302.857" y1="366.648" y2="609.505" gradientTransform="matrix(0.06732488,0,0,0.01470022,-0.3411391,37.040146)" gradientUnits="userSpaceOnUse" xlink:href="#linearGradient5048"/><linearGradient id="linearGradient5048"><stop id="stop5050" offset="0" style="stop-color:#000;stop-opacity:0"/><stop id="stop5056" offset=".5" style="stop-color:#000;stop-opacity:1"/><stop id="stop5052" offset="1" style="stop-color:#000;stop-opacity:0"/></linearGradient><radialGradient id="radialGradient3330" cx="605.714" cy="486.648" r="117.143" fx="605.714" fy="486.648" gradientTransform="matrix(-0.02303994,0,0,0.01470022,21.62311,37.040176)" gradientUnits="userSpaceOnUse" xlink:href="#linearGradient5060"/><linearGradient id="linearGradient5060"><stop id="stop5062" offset="0" style="stop-color:#000;stop-opacity:1"/><stop id="stop5064" offset="1" style="stop-color:#000;stop-opacity:0"/></linearGradient><radialGradient id="radialGradient3327" cx="605.714" cy="486.648" r="117.143" fx="605.714" fy="486.648" gradientTransform="matrix(0.02303995,0,0,0.01470022,26.360882,37.040176)" gradientUnits="userSpaceOnUse" xlink:href="#linearGradient5060"/><linearGradient id="linearGradient3062-0-8" x1="25" x2="25" y1="47.935" y2=".918" gradientTransform="translate(0,-4.6076e-4)" gradientUnits="userSpaceOnUse" xlink:href="#linearGradient3707-662"/><linearGradient id="linearGradient3671-580"><stop id="stop4088" offset="0" style="stop-color:#fc93dc;stop-opacity:1"/><stop id="stop4090" offset=".262" style="stop-color:#da72d3;stop-opacity:1"/><stop id="stop4092" offset=".705" style="stop-color:#a33fab;stop-opacity:1"/><stop id="stop4094" offset="1" style="stop-color:#502b58;stop-opacity:1"/></linearGradient><radialGradient id="radialGradient3060-0-4" cx="7.806" cy="9.957" r="12.672" fx="7.276" fy="9.957" gradientTransform="matrix(-1.6167311e-7,6.6018651,-8.0922115,-1.9817022e-7,104.56429,-60.072946)" gradientUnits="userSpaceOnUse" xlink:href="#linearGradient3671-580"/><linearGradient id="linearGradient3977-4"><stop id="stop3979-7" offset="0" style="stop-color:#fff;stop-opacity:1"/><stop id="stop3981-6" offset=".036" style="stop-color:#fff;stop-opacity:.23529412"/><stop id="stop3983-5" offset=".951" style="stop-color:#fff;stop-opacity:.15686275"/><stop id="stop3985-6" offset="1" style="stop-color:#fff;stop-opacity:.39215687"/></linearGradient><linearGradient id="linearGradient3988" x1="24" x2="24" y1="5.564" y2="43" gradientTransform="matrix(0.89189189,0,0,1.1351351,2.5945999,-4.7432313)" gradientUnits="userSpaceOnUse" xlink:href="#linearGradient3977-4"/><linearGradient id="linearGradient3707-662"><stop id="stop4098" offset="0" style="stop-color:#542f57;stop-opacity:1"/><stop id="stop4100" offset="1" style="stop-color:#bb5ca4;stop-opacity:1"/></linearGradient><linearGradient id="linearGradient3885-1" x1="7.505" x2="7.505" y1="12" y2="0" gradientUnits="userSpaceOnUse" xlink:href="#linearGradient3707-662-1"/><linearGradient id="linearGradient3707-662-1"><stop id="stop4098-7" offset="0" style="stop-color:#542f57;stop-opacity:1"/><stop id="stop4100-0" offset="1" style="stop-color:#bb5ca4;stop-opacity:1"/></linearGradient><linearGradient id="linearGradient3798-3"><stop id="stop3800-9" offset="0" style="stop-color:#bebebe;stop-opacity:.69800001"/><stop id="stop3802-0" offset="1" style="stop-color:#bebebe;stop-opacity:1"/></linearGradient><linearGradient id="linearGradient3899" x1="8.213" x2="8.213" y1=".959" y2="14.986" gradientTransform="matrix(1,0,0,-1,0,16)" gradientUnits="userSpaceOnUse" xlink:href="#linearGradient3798-3"/></defs><metadata id="metadata3152"/><path id="path4160" d="m 2.4999621,0.49997396 c 2.5206756,0 11.0000629,9.54e-4 11.0000629,9.54e-4 l 1.3e-5,14.99909804 c 0,0 -7.3333841,0 -11.0000759,0 0,-5.000017 0,-10.000035 0,-15.00005204 z" style="color:#000;fill:url(#radialGradient3062-4);fill-opacity:1;fill-rule:nonzero;stroke:url(#linearGradient3064-3);stroke-width:1;stroke-linecap:butt;stroke-linejoin:round;stroke-miterlimit:4;stroke-opacity:1;stroke-dasharray:none;stroke-dashoffset:0;marker:none;visibility:visible;display:inline;overflow:visible;enable-background:accumulate"/><path id="rect6741-1" d="m 12.5,14.5 -9.0000001,0 0,-13 L 12.5,1.5 z" style="opacity:.5;fill:none;stroke:url(#linearGradient3055);stroke-width:1;stroke-linecap:round;stroke-linejoin:miter;stroke-miterlimit:4;stroke-opacity:1;stroke-dasharray:none;stroke-dashoffset:0"/><path id="path3002" d="m 7.2857143,13 0,-1.25 C 7.0292646,11.682927 6.7944457,11.577654 6.5714286,11.446429 L 5.6785714,12.339286 4.6607143,11.321429 5.5535714,10.428571 C 5.4223462,10.205554 5.317073,9.970735 5.25,9.714286 l -1.25,0 0,-1.428572 1.25,0 C 5.317073,8.029264 5.4223462,7.7944457 5.5535714,7.5714286 L 4.6607143,6.6785714 5.6785714,5.6607143 6.5714286,6.5535714 C 6.7944457,6.4223463 7.0292646,6.3170731 7.2857143,6.25 l 0,-1.25 1.4285714,0 0,1.25 C 8.9707354,6.317073 9.2055543,6.4223463 9.4285714,6.5535714 L 10.321429,5.6607143 11.339286,6.6785714 10.446429,7.5714286 C 10.577654,7.7944457 10.682927,8.029264 10.75,8.285714 l 1.25,0 0,1.428572 -1.25,0 c -0.06707,0.256449 -0.172346,0.491268 -0.303571,0.714285 l 0.892857,0.892858 -1.017857,1.017857 -0.8928576,-0.892857 C 9.2055543,11.577654 8.9707354,11.682927 8.7142857,11.75 l 0,1.25 -1.4285714,0 z M 8,10.142857 C 8.6311829,10.142857 9.1428571,9.631183 9.1428571,9 9.1428571,8.368817 8.6311829,7.8571429 8,7.8571429 7.3688177,7.8571429 6.8571429,8.368817 6.8571429,9 c 0,0.631183 0.5116748,1.142857 1.1428571,1.142857 z" style="opacity:.3;color:#bebebe;fill:#fff;fill-opacity:1;fill-rule:nonzero;stroke:none;stroke-width:1;marker:none;visibility:visible;display:inline;overflow:visible;enable-background:accumulate"/><path id="path3002-2" d="m 7.2857143,12 0,-1.25 C 7.0292646,10.682927 6.7944457,10.577654 6.5714286,10.446429 L 5.6785714,11.339286 4.6607143,10.321429 5.5535714,9.428571 C 5.4223462,9.205554 5.317073,8.970735 5.25,8.714286 l -1.25,0 0,-1.428572 1.25,0 C 5.317073,7.029264 5.4223462,6.7944457 5.5535714,6.5714286 L 4.6607143,5.6785714 5.6785714,4.6607143 6.5714286,5.5535714 C 6.7944457,5.4223463 7.0292646,5.3170731 7.2857143,5.25 l 0,-1.25 1.4285714,0 0,1.25 C 8.9707354,5.317073 9.2055543,5.4223463 9.4285714,5.5535714 L 10.321429,4.6607143 11.339286,5.6785714 10.446429,6.5714286 C 10.577654,6.7944457 10.682927,7.029264 10.75,7.285714 l 1.25,0 0,1.428572 -1.25,0 c -0.06707,0.256449 -0.172346,0.491268 -0.303571,0.714285 l 0.892857,0.892858 -1.017857,1.017857 -0.8928576,-0.892857 C 9.2055543,10.577654 8.9707354,10.682927 8.7142857,10.75 l 0,1.25 -1.4285714,0 z M 8,9.142857 C 8.6311829,9.142857 9.1428571,8.631183 9.1428571,8 9.1428571,7.368817 8.6311829,6.8571429 8,6.8571429 7.3688177,6.8571429 6.8571429,7.368817 6.8571429,8 6.8571429,8.631183 7.3688177,9.142857 8,9.142857 z" style="color:#bebebe;fill:#7d4176;fill-opacity:1;fill-rule:nonzero;stroke:none;stroke-width:1;marker:none;visibility:visible;display:inline;overflow:visible;enable-background:accumulate"/></svg>