<svg xmlns="http://www.w3.org/2000/svg" xmlns:svg="http://www.w3.org/2000/svg" xmlns:xlink="http://www.w3.org/1999/xlink" id="svg3810" width="16" height="16" version="1.1"><defs id="defs3812"><linearGradient id="linearGradient3988" x1="24" x2="24" y1="5.564" y2="43" gradientTransform="matrix(0.24324324,0,0,0.35135133,2.1621636,-0.43242804)" gradientUnits="userSpaceOnUse" xlink:href="#linearGradient3977"/><linearGradient id="linearGradient3977"><stop id="stop3979" offset="0" style="stop-color:#fff;stop-opacity:1"/><stop id="stop3981" offset=".036" style="stop-color:#fff;stop-opacity:.23529412"/><stop id="stop3983" offset=".951" style="stop-color:#fff;stop-opacity:.15686275"/><stop id="stop3985" offset="1" style="stop-color:#fff;stop-opacity:.39215687"/></linearGradient><linearGradient id="linearGradient3600"><stop id="stop3602" offset="0" style="stop-color:#f4f4f4;stop-opacity:1"/><stop id="stop3604" offset="1" style="stop-color:#dbdbdb;stop-opacity:1"/></linearGradient><linearGradient id="linearGradient3104"><stop id="stop3106" offset="0" style="stop-color:#a0a0a0;stop-opacity:1"/><stop id="stop3108" offset="1" style="stop-color:#bebebe;stop-opacity:1"/></linearGradient><linearGradient id="linearGradient3806" x1="25.132" x2="25.132" y1=".985" y2="47.013" gradientTransform="matrix(0.31428714,0,0,0.3259265,0.457108,-0.32223804)" gradientUnits="userSpaceOnUse" xlink:href="#linearGradient3600"/><linearGradient id="linearGradient3808" x1="-51.786" x2="-51.786" y1="50.786" y2="2.906" gradientTransform="matrix(0.25378586,0,0,0.30501865,19.128979,-0.68547704)" gradientUnits="userSpaceOnUse" xlink:href="#linearGradient3104"/></defs><metadata id="metadata3815"/><g id="layer1"><path id="path4160" d="m 2.4999621,0.49997396 c 2.5206756,0 11.0000629,9.54e-4 11.0000629,9.54e-4 l 1.3e-5,14.99909804 c 0,0 -7.3333841,0 -11.0000759,0 0,-5.000017 0,-10.000035 0,-15.00005204 z" style="fill:url(#linearGradient3806);fill-opacity:1;stroke:url(#linearGradient3808);stroke-width:.99992192;stroke-linecap:butt;stroke-linejoin:round;stroke-miterlimit:4;stroke-opacity:1;stroke-dasharray:none;stroke-dashoffset:0;display:inline"/><path id="rect6741-1" d="m 12.5,14.5 -9.0000001,0 0,-13 L 12.5,1.5 z" style="fill:none;stroke:url(#linearGradient3988);stroke-width:1;stroke-linecap:round;stroke-linejoin:miter;stroke-miterlimit:4;stroke-opacity:1;stroke-dasharray:none;stroke-dashoffset:0"/><path id="path2882" d="M 4.1191806,9.5 5.8783778,7.236 5.2905415,6.5000004 3,9.5 5.3513515,12.5 6,11.827999 4.1191806,9.5 z" style="opacity:.4;fill:#fff;fill-opacity:1;stroke:none"/><path id="rect2888" d="m 8.5,7.5000004 c 0,0 1,0 1,0 0,0 -2,3.9999996 -2,3.9999996 0,0 -0.801461,0 -1,0 0,0 2,-3.9999996 2,-3.9999996 z" style="opacity:.4;color:#000;fill:#fff;fill-opacity:1;fill-rule:evenodd;stroke:none;stroke-width:3;marker:none;visibility:visible;display:inline;overflow:visible;enable-background:accumulate"/><path id="path2882-6" d="M 11.885135,9.444 10.121622,7.236 10.709459,6.5000004 13,9.444 10.648649,12.5 10,11.827999 11.885135,9.444 z" style="opacity:.4;fill:#fff;fill-opacity:1;stroke:none"/><path id="path2882-7" d="M 4.1191806,8.5000004 5.8783778,6.236 5.2905415,5.5000004 3,8.5000004 5.3513515,11.5 6,10.827999 4.1191806,8.5000004 z" style="fill:#999;fill-opacity:1;stroke:none"/><path id="rect2888-2" d="m 8.5,6.5000004 c 0,0 1,0 1,0 0,0 -2,3.9999996 -2,3.9999996 0,0 -0.801461,0 -1,0 0,0 2,-3.9999996 2,-3.9999996 z" style="color:#000;fill:#666;fill-opacity:1;fill-rule:evenodd;stroke:none;stroke-width:3;marker:none;visibility:visible;display:inline;overflow:visible;enable-background:accumulate"/><path id="path2882-6-7" d="M 11.885135,8.444 10.121622,6.236 10.709459,5.5000004 13,8.444 10.648649,11.5 10,10.827999 11.885135,8.444 z" style="fill:#999;fill-opacity:1;stroke:none"/></g></svg>