<svg xmlns="http://www.w3.org/2000/svg" xmlns:svg="http://www.w3.org/2000/svg" xmlns:xlink="http://www.w3.org/1999/xlink" id="svg3942" width="16" height="16" version="1.1"><defs id="defs3944"><linearGradient id="linearGradient3072" x1="11.704" x2="11.704" y1="19.199" y2="12.501" gradientTransform="matrix(0.64707876,0,0,0.65120188,0.2524331,0.97350767)" gradientUnits="userSpaceOnUse" xlink:href="#linearGradient4299-652"/><linearGradient id="linearGradient4299-652"><stop style="stop-color:#fff;stop-opacity:1" id="stop3618" offset="0"/><stop style="stop-color:#fff;stop-opacity:0" id="stop3620" offset="1"/></linearGradient><linearGradient id="linearGradient3092" x1="-51.786" x2="-51.786" y1="50.786" y2="2.906" gradientTransform="matrix(0.25378586,0,0,0.30501865,19.128979,-0.68547704)" gradientUnits="userSpaceOnUse" xlink:href="#linearGradient3104-9"/><linearGradient id="linearGradient3104-9"><stop id="stop3106-5" offset="0" style="stop-color:#000;stop-opacity:.33950618"/><stop id="stop3108-5" offset="1" style="stop-color:#000;stop-opacity:.24691358"/></linearGradient><linearGradient id="linearGradient3095" x1="24" x2="24" y1="6.205" y2="41.59" gradientTransform="matrix(0.24324324,0,0,0.35135133,2.1621636,-0.43242804)" gradientUnits="userSpaceOnUse" xlink:href="#linearGradient3977"/><linearGradient id="linearGradient3977"><stop id="stop3979" offset="0" style="stop-color:#fff;stop-opacity:1"/><stop id="stop3981" offset=".029" style="stop-color:#fff;stop-opacity:.23529412"/><stop id="stop3983" offset=".972" style="stop-color:#fff;stop-opacity:.15686275"/><stop id="stop3985" offset="1" style="stop-color:#fff;stop-opacity:.39215687"/></linearGradient><linearGradient id="linearGradient3600"><stop id="stop3602" offset="0" style="stop-color:#f4f4f4;stop-opacity:1"/><stop id="stop3604" offset="1" style="stop-color:#dbdbdb;stop-opacity:1"/></linearGradient><linearGradient id="linearGradient3940" x1="25.132" x2="25.132" y1=".985" y2="47.013" gradientTransform="matrix(0.28571361,0,0,0.30419701,1.1428727,0.2326048)" gradientUnits="userSpaceOnUse" xlink:href="#linearGradient3600"/></defs><metadata id="metadata3947"/><g id="layer1"><path style="fill:url(#linearGradient3940);fill-opacity:1;stroke:none;display:inline" id="path4160" d="m 3,1 c 2.2915074,0 9.999988,8.904e-4 9.999988,8.904e-4 L 13,15 C 13,15 6.3333332,15 3,15 3,10.333334 3,5.6666664 3,1 z"/><path style="fill:none;stroke:url(#linearGradient3095);stroke-width:1;stroke-linecap:round;stroke-linejoin:miter;stroke-miterlimit:4;stroke-opacity:1;stroke-dasharray:none;stroke-dashoffset:0" id="rect6741-1" d="m 12.5,14.5 -9.0000001,0 0,-13 L 12.5,1.5 z"/><path style="fill:none;stroke:url(#linearGradient3092);stroke-width:.99992192;stroke-linecap:butt;stroke-linejoin:round;stroke-miterlimit:4;stroke-opacity:1;stroke-dasharray:none;stroke-dashoffset:0;display:inline" id="path4160-8" d="m 2.4999621,0.49997396 c 2.5206756,0 11.0000629,9.54e-4 11.0000629,9.54e-4 l 1.3e-5,14.99909804 c 0,0 -7.3333841,0 -11.000076,0 0,-5.000017 0,-10.000035 0,-15.00005204 z"/><path id="path3524" d="m 6.9049692,5.1857714 c -0.386083,0.072967 -0.592869,0.4796142 -0.545973,0.8485877 0,0.585407 0,1.8222138 0,2.4076208 -0.37457,0.0239 -1.461904,-0.09532 -1.752951,0.214177 -0.301839,0.294858 -0.228972,0.802358 0.07788,1.062239 0.952573,1.0628261 1.900603,2.1299091 2.856026,3.1900661 0.306851,0.309924 0.843257,0.21666 1.077572,-0.13371 0.958854,-1.077092 1.9277318,-2.145732 2.8802978,-3.2281271 0.332778,-0.430544 -0.0272,-1.129816 -0.56859,-1.104645 -0.202213,0 -1.0514518,0 -1.2536638,0 -0.0029,-0.6609178 0.0058,-1.9736086 -0.0045,-2.6342899 -0.03348,-0.4132638 -0.451169,-0.6745402 -0.838781,-0.6219186 -1.073693,3.13e-5 -0.854002,-4.24e-5 -1.927387,0 z" style="opacity:.6;color:#000;fill:none;stroke:url(#linearGradient3072);stroke-width:1;stroke-linecap:round;stroke-linejoin:miter;stroke-miterlimit:4;stroke-opacity:1;stroke-dasharray:none;stroke-dashoffset:0;marker:none;visibility:visible;display:inline;overflow:visible;enable-background:accumulate"/><path style="color:#000;fill:#bebebe;fill-opacity:1;fill-rule:nonzero;stroke:#a0a0a0;stroke-width:1;stroke-linecap:round;stroke-linejoin:round;stroke-miterlimit:4;stroke-opacity:1;stroke-dasharray:none;stroke-dashoffset:0;marker:none;visibility:visible;display:inline;overflow:visible;enable-background:accumulate" id="path3870" d="m 7.5,5.5 0,3 -2.5,0 3,3.5 3,-3.5 -2.5,0 0,-3 z"/></g></svg>