<svg xmlns="http://www.w3.org/2000/svg" xmlns:svg="http://www.w3.org/2000/svg" xmlns:xlink="http://www.w3.org/1999/xlink" id="svg3147" width="16" height="16" version="1.1"><defs id="defs3149"><linearGradient id="linearGradient3104-5"><stop id="stop3106-2" offset="0" style="stop-color:#aaa;stop-opacity:1"/><stop id="stop3108-5" offset="1" style="stop-color:#c8c8c8;stop-opacity:1"/></linearGradient><linearGradient id="linearGradient3977"><stop id="stop3979" offset="0" style="stop-color:#fff;stop-opacity:1"/><stop id="stop3981" offset=".036" style="stop-color:#fff;stop-opacity:.23529412"/><stop id="stop3983" offset=".951" style="stop-color:#fff;stop-opacity:.15686275"/><stop id="stop3985" offset="1" style="stop-color:#fff;stop-opacity:.39215687"/></linearGradient><linearGradient id="linearGradient3600"><stop id="stop3602" offset="0" style="stop-color:#f4f4f4;stop-opacity:1"/><stop id="stop3604" offset="1" style="stop-color:#dbdbdb;stop-opacity:1"/></linearGradient><linearGradient id="linearGradient3104"><stop id="stop3106" offset="0" style="stop-color:#a0a0a0;stop-opacity:1"/><stop id="stop3108" offset="1" style="stop-color:#bebebe;stop-opacity:1"/></linearGradient><linearGradient id="linearGradient3066" x1="24" x2="24" y1="5.564" y2="43" gradientTransform="matrix(0.22297294,0,0,0.35135133,2.2736505,-0.43242895)" gradientUnits="userSpaceOnUse" xlink:href="#linearGradient3977-6"/><linearGradient id="linearGradient3977-6"><stop style="stop-color:#fff;stop-opacity:1" id="stop3979-9" offset="0"/><stop id="stop3981-3" offset=".036" style="stop-color:#fff;stop-opacity:.23529412"/><stop style="stop-color:#fff;stop-opacity:.15686275" id="stop3983-7" offset=".951"/><stop style="stop-color:#fff;stop-opacity:.39215687" id="stop3985-4" offset="1"/></linearGradient><linearGradient id="linearGradient2867-449-88-871-390-598-476-591-434-148-57-177-8"><stop style="stop-color:#90dbec;stop-opacity:1" id="stop3750-1" offset="0"/><stop style="stop-color:#55c1ec;stop-opacity:1" id="stop3752-3" offset=".262"/><stop style="stop-color:#3689e6;stop-opacity:1" id="stop3754-1" offset=".705"/><stop style="stop-color:#2b63a0;stop-opacity:1" id="stop3756-1" offset="1"/></linearGradient><linearGradient id="linearGradient3707-319-631-407-324-3"><stop style="stop-color:#185f9a;stop-opacity:1" id="stop3760-4" offset="0"/><stop style="stop-color:#599ec9;stop-opacity:1" id="stop3762-0" offset="1"/></linearGradient><radialGradient id="radialGradient3062" cx="7.806" cy="9.957" r="12.672" fx="7.276" fy="9.957" gradientTransform="matrix(-7.3617649e-8,2.251132,-3.6847783,-6.7572924e-8,47.15124,-20.156075)" gradientUnits="userSpaceOnUse" xlink:href="#linearGradient2867-449-88-871-390-598-476-591-434-148-57-177-8"/><linearGradient id="linearGradient3064" x1="25" x2="25" y1="47.935" y2=".918" gradientTransform="matrix(0.45534875,0,0,0.34098425,-0.46197711,0.32769652)" gradientUnits="userSpaceOnUse" xlink:href="#linearGradient3707-319-631-407-324-3"/><linearGradient id="linearGradient3052" x1="22.004" x2="22.004" y1="47.813" y2="3.364" gradientTransform="matrix(0.32160807,0,0,0.3333374,1.824853,-0.34907707)" gradientUnits="userSpaceOnUse" xlink:href="#linearGradient3104-5"/><linearGradient id="linearGradient3055" x1="24" x2="24" y1="5.564" y2="43" gradientTransform="matrix(0.24324324,0,0,0.35135133,2.1621636,-0.43242804)" gradientUnits="userSpaceOnUse" xlink:href="#linearGradient3977"/><linearGradient id="linearGradient3058" x1="25.132" x2="25.132" y1=".985" y2="47.013" gradientTransform="matrix(0.31428714,0,0,0.3259265,0.457108,-0.32223804)" gradientUnits="userSpaceOnUse" xlink:href="#linearGradient3600"/><linearGradient id="linearGradient3060" x1="-51.786" x2="-51.786" y1="50.786" y2="2.906" gradientTransform="matrix(0.25378586,0,0,0.30501865,19.128979,-0.68547704)" gradientUnits="userSpaceOnUse" xlink:href="#linearGradient3104"/><linearGradient id="linearGradient2770" x1="32.892" x2="36.358" y1="8.059" y2="5.457" gradientTransform="matrix(0.2967948,0,0,0.355083,1.2059208,0.9503907)" gradientUnits="userSpaceOnUse" xlink:href="#linearGradient8589-0-2-885-13"/><linearGradient id="linearGradient8589-0-2-885-13"><stop style="stop-color:#fefefe;stop-opacity:1" id="stop2912" offset="0"/><stop style="stop-color:#cbcbcb;stop-opacity:1" id="stop2914" offset="1"/></linearGradient><linearGradient id="linearGradient2772" x1="17.289" x2="15.18" y1="2.185" y2="5.821" gradientTransform="matrix(0.547965,0,0,0.6824617,1.7211219,1.156396)" gradientUnits="userSpaceOnUse" xlink:href="#linearGradient4559-3-4-562-226"/><linearGradient id="linearGradient4559-3-4-562-226"><stop style="stop-color:#8f8f8f;stop-opacity:1" id="stop2918" offset="0"/><stop style="stop-color:#afafaf;stop-opacity:1" id="stop2920" offset="1"/></linearGradient><linearGradient id="linearGradient2707" x1="33.877" x2="44.119" y1="19.948" y2="30.191" gradientTransform="matrix(0,0.6,0.6,0,-8.6000001,-11.8)" gradientUnits="userSpaceOnUse" xlink:href="#linearGradient3412"/><linearGradient id="linearGradient3412"><stop style="stop-color:#fcfcfc;stop-opacity:1" id="stop3414" offset="0"/><stop style="stop-color:#cbcdd9;stop-opacity:1" id="stop3416" offset="1"/></linearGradient><linearGradient id="linearGradient2776" x1="25.132" x2="25.132" y1="6.729" y2="47.013" gradientTransform="matrix(0.2858492,0,0,0.2889939,1.6396178,1.0641474)" gradientUnits="userSpaceOnUse" xlink:href="#linearGradient3600-4-0-797-101"/><linearGradient id="linearGradient3600-4-0-797-101"><stop style="stop-color:#f4f4f4;stop-opacity:1" id="stop2906" offset="0"/><stop style="stop-color:#dbdbdb;stop-opacity:1" id="stop2908" offset="1"/></linearGradient><linearGradient id="linearGradient3070" x1="32.892" x2="36.358" y1="8.059" y2="5.457" gradientTransform="matrix(0.2967948,0,0,0.355083,15.703548,0.2527003)" gradientUnits="userSpaceOnUse" xlink:href="#linearGradient8589-0-2-885-13"/><linearGradient id="linearGradient3072" x1="17.289" x2="15.18" y1="2.185" y2="5.821" gradientTransform="matrix(0.547965,0,0,0.6824617,16.218749,0.4587056)" gradientUnits="userSpaceOnUse" xlink:href="#linearGradient4559-3-4-562-226"/><linearGradient id="linearGradient3075" x1="33.877" x2="44.119" y1="19.948" y2="30.191" gradientTransform="matrix(0,0.6,0.6,0,5.8976269,-12.49769)" gradientUnits="userSpaceOnUse" xlink:href="#linearGradient3412"/><linearGradient id="linearGradient3080" x1="25.132" x2="25.132" y1="6.729" y2="47.013" gradientTransform="matrix(0.2858492,0,0,0.2889939,16.137245,0.366457)" gradientUnits="userSpaceOnUse" xlink:href="#linearGradient3600-4-0-797-101"/><linearGradient id="linearGradient3085" x1="33.877" x2="44.119" y1="19.948" y2="30.191" gradientTransform="matrix(0,0.6,0.6,0,5.8976269,-12.49769)" gradientUnits="userSpaceOnUse" xlink:href="#linearGradient3412"/></defs><metadata id="metadata3152"/><path style="fill:url(#linearGradient3058);fill-opacity:1;stroke:url(#linearGradient3060);stroke-width:.99992192;stroke-linecap:butt;stroke-linejoin:round;stroke-miterlimit:4;stroke-opacity:1;stroke-dasharray:none;stroke-dashoffset:0;display:inline" id="path4160" d="m 2.4999621,0.49997396 c 2.5206756,0 11.0000629,9.54e-4 11.0000629,9.54e-4 l 1.3e-5,14.99909804 c 0,0 -7.3333841,0 -11.0000759,0 0,-5.000017 0,-10.000035 0,-15.00005204 z"/><path style="fill:none;stroke:url(#linearGradient3055);stroke-width:1;stroke-linecap:round;stroke-linejoin:miter;stroke-miterlimit:4;stroke-opacity:1;stroke-dasharray:none;stroke-dashoffset:0" id="rect6741-1" d="m 12.5,14.5 -9.0000001,0 0,-13 L 12.5,1.5 z"/><path style="fill:none;stroke:url(#linearGradient3052);stroke-width:1px;stroke-linecap:butt;stroke-linejoin:miter;stroke-opacity:1" id="path3475" d="m 6,3.499995 0.7537691,0 z m 0.8643219,0 0.703517,0 z m 0.8140698,0 0.6231156,0 z m 0.7236186,0 0.2713566,0 z m 0.3819095,0 0.603015,0 z m 0.7236186,0 1.5879396,0 z M 6,4.494812 l 0.9949753,0 z m 1.0954773,0 1.6281406,0 z m 1.7286437,0 0.7939702,0 z m 0.8944722,0 0.7437188,0 z m 0.8442218,0 0.633165,0 z M 6,5.5 l 0.5125628,0 z m 0.6733666,0 1.8994984,0 z M 6,7.4947954 l 0.9949753,0 z m 1.0954773,0 1.6281406,0 z m 1.7286437,0 0.7939702,0 z m 0.8944722,0 0.7437188,0 z m 0.8442218,0 0.633165,0 z M 6,8.5 l 0.7537691,0 z m 0.8643219,0 0.6934672,0 z m 0.8140698,0 0.6231156,0 z m 0.7236186,0 0.2713566,0 z m 0.3819095,0 0.603015,0 z m 0.7236186,0 1.5778886,0 z M 6,9.5 l 1.1758797,0 z m 1.3065331,0 0.5628138,0 z m 0.6633158,0 0.2814074,0 z m 0.3919602,0 0.5125629,0 z m 0.6231157,0 0.5226136,0 z m 0.6231156,0 0.8341716,0 z m 0.9447246,0 1.085426,0 z M 6,11.494804 l 0.9949753,0 z m 1.0954773,0 1.6281406,0 z m 1.7286437,0 0.7939702,0 z m 0.8944722,0 0.7437188,0 z m 0.8442218,0 0.633165,0 z M 6,12.5 l 1.2462313,0 z m 1.3567841,0 0.3919602,0 z m 0.4924622,0 0.8944722,0 z m 0.9949753,0 1.3165834,0 z m 1.4271354,0 0.894473,0 z m 0.984925,0 0.190955,0 z M 6,13.5 l 1.2462313,0 z m 1.3567841,0 0.5628138,0 z m 0.6633168,0 0.8844215,0 z m 0.9849245,0 0.954774,0 z m 1.0653266,0 0.38191,0 z m 0.482413,0 0.211055,0 z m 0.321607,0 0.592966,0 z"/><path style="color:#000;fill:url(#radialGradient3062);fill-opacity:1;fill-rule:nonzero;stroke:url(#linearGradient3064);stroke-width:1;stroke-linecap:butt;stroke-linejoin:round;stroke-miterlimit:4;stroke-opacity:1;stroke-dasharray:none;stroke-dashoffset:0;marker:none;visibility:visible;display:inline;overflow:visible;enable-background:accumulate" id="path4530" d="m 4.9999997,15.5 c -0.7988458,0 -1.5976936,0 -2.3965433,0 -0.194166,-0.177608 -0.046516,-0.530231 -0.092649,-0.781669 0,-4.710715 0,-9.4214287 0,-14.13214153 l 0.02708,-0.0610008 0.065569,-0.0251887 0,0 c 0.8314375,0 1.53252,0 2.3639536,0"/><path style="opacity:.5;fill:none;stroke:url(#linearGradient3066);stroke-width:1;stroke-linecap:round;stroke-linejoin:round;stroke-miterlimit:4;stroke-opacity:1;stroke-dasharray:none;stroke-dashoffset:0" id="rect6741-1-5" d="m 4.5000001,14.5 -1,0 0,-13 1,0"/><g id="g3082" transform="matrix(-1,0,0,1,31.497627,0.69769)"><path style="opacity:.8;fill:url(#linearGradient3085);fill-opacity:1;fill-rule:evenodd;stroke:#83899a;stroke-width:1px;stroke-linecap:butt;stroke-linejoin:miter;stroke-opacity:1" id="path3410" d="m 16.997627,5.8023097 9,9.0000003 -9,0 0,-9.0000003 z m 2,5.0000003 0,2 2,0 -2,-2 z"/></g></svg>